<?xml version="1.0" encoding="UTF-8" standalone="no"?>
<svg width="32" height="32" viewBox="0 0 32 32" fill="none" xmlns="http://www.w3.org/2000/svg">
  <!-- Glossy background with gradient -->
  <rect width="32" height="32" rx="8" fill="url(#paint0_linear)" />
  
  <!-- Main logo elements -->
  <!-- Stylized road/path representing the journey -->
  <path d="M8 22H24" stroke="white" stroke-width="1.5" stroke-linecap="round" />
  
  <!-- Car/vehicle representing "Drive" -->
  <path d="M12 22C12 22 14 18 16 18C18 18 20 22 20 22H12Z" fill="url(#paint1_linear)" />
  <path d="M12 22C12 22 14 18 16 18C18 18 20 22 20 22H12Z" stroke="white" stroke-width="0.5" />
  
  <!-- Headlights -->
  <circle cx="13.5" cy="20" r="0.8" fill="#FFFFFF" />
  <circle cx="18.5" cy="20" r="0.8" fill="#FFFFFF" />
  
  <!-- Brain icon representing DSA learning -->
  <circle cx="16" cy="12" r="4" fill="url(#paint2_radial)" />
  
  <!-- Neural network connections -->
  <path d="M16 16V18" stroke="white" stroke-width="0.5" stroke-linecap="round" />
  <path d="M16 18L14 19" stroke="white" stroke-width="0.5" stroke-linecap="round" />
  <path d="M16 18L18 19" stroke="white" stroke-width="0.5" stroke-linecap="round" />
  
  <!-- Binary tree structure inside brain -->
  <path d="M16 10V14" stroke="white" stroke-width="0.5" />
  <path d="M16 10L14.5 11.5" stroke="white" stroke-width="0.5" />
  <path d="M16 10L17.5 11.5" stroke="white" stroke-width="0.5" />
  <circle cx="16" cy="10" r="0.8" fill="#FFFFFF" />
  <circle cx="14.5" cy="11.5" r="0.6" fill="#FFFFFF" />
  <circle cx="17.5" cy="11.5" r="0.6" fill="#FFFFFF" />
  <circle cx="16" cy="14" r="0.6" fill="#FFFFFF" />
  
  <!-- Gradients -->
  <defs>
    <!-- Main background gradient -->
    <linearGradient id="paint0_linear" x1="0" y1="0" x2="32" y2="32" gradientUnits="userSpaceOnUse">
      <stop offset="0" stop-color="#2563EB" />
      <stop offset="0.5" stop-color="#4F46E5" />
      <stop offset="1" stop-color="#7E22CE" />
    </linearGradient>
    
    <!-- Car body gradient -->
    <linearGradient id="paint1_linear" x1="12" y1="18" x2="20" y2="22" gradientUnits="userSpaceOnUse">
      <stop offset="0" stop-color="#60A5FA" />
      <stop offset="1" stop-color="#3B82F6" />
    </linearGradient>
    
    <!-- Brain gradient -->
    <radialGradient id="paint2_radial" cx="0" cy="0" r="1" gradientUnits="userSpaceOnUse" gradientTransform="translate(16 12) rotate(90) scale(4)">
      <stop offset="0" stop-color="#A78BFA" />
      <stop offset="1" stop-color="#8B5CF6" />
    </radialGradient>
  </defs>
</svg>
